<?xml version="1.0" encoding="utf-8"?>
<!-- Generator: Adobe Illustrator 26.5.0, SVG Export Plug-In . SVG Version: 6.00 Build 0)  -->
<svg version="1.1" id="Layer_1" xmlns="http://www.w3.org/2000/svg" xmlns:xlink="http://www.w3.org/1999/xlink" x="0px" y="0px"
	 viewBox="0 0 48 48" style="enable-background:new 0 0 48 48;" xml:space="preserve">
<style type="text/css">
	.st0{fill:#FFFFFF;stroke:#FFFFFF;stroke-miterlimit:10;}
</style>
<path class="st0" d="M24,44.8c-2.9,0-5.6-0.5-8.1-1.7c-2.5-1.1-4.7-2.6-6.6-4.5S6,34.6,4.8,32s-1.6-5.2-1.6-8c0-2.9,0.5-5.6,1.6-8.1
	s2.6-4.7,4.5-6.6s4.1-3.4,6.6-4.4s5.2-1.6,8.1-1.6c2.9,0,5.6,0.5,8.1,1.6s4.7,2.6,6.6,4.4s3.4,4.1,4.5,6.6c1.1,2.5,1.6,5.2,1.6,8.1
	c0,2.8-0.5,5.5-1.6,8c-1.1,2.5-2.6,4.7-4.5,6.6c-1.9,1.9-4.1,3.4-6.6,4.5C29.6,44.2,26.9,44.8,24,44.8z M24,41.1
	c4.8,0,8.8-1.7,12.2-5c3.3-3.4,5-7.4,5-12.1c0-4.8-1.7-8.8-5-12.1s-7.4-5-12.2-5c-4.7,0-8.8,1.7-12.1,5s-5,7.4-5,12.1
	c0,4.7,1.7,8.8,5,12.1S19.3,41.2,24,41.1z"/>
</svg>
