<?xml version="1.0" encoding="UTF-8"?>
<svg id="Layer_1" xmlns="http://www.w3.org/2000/svg" version="1.1" viewBox="0 0 48 48">
  <!-- Generator: Adobe Illustrator 29.0.0, SVG Export Plug-In . SVG Version: 2.1.0 Build 186)  -->
  <defs>
    <style>
      .st0 {
        fill: #fff;
      }
    </style>
  </defs>
  <path class="st0" d="M24,44.8c-2.9,0-5.6-.5-8.1-1.7-2.5-1.1-4.7-2.6-6.6-4.5-1.9-1.9-3.4-4.1-4.5-6.6-1.1-2.5-1.6-5.2-1.6-8s.5-5.6,1.6-8.1c1.1-2.5,2.6-4.7,4.5-6.6,1.9-1.9,4.1-3.4,6.6-4.4,2.5-1.1,5.2-1.6,8.1-1.6,2.9,0,5.6.5,8.1,1.6s4.7,2.6,6.6,4.4,3.4,4.1,4.5,6.6c1.1,2.5,1.6,5.2,1.6,8.1s-.5,5.5-1.6,8c-1.1,2.5-2.6,4.7-4.5,6.6-1.9,1.9-4.1,3.4-6.6,4.5-2.5,1.1-5.2,1.6-8.1,1.6ZM24,41.1c4.8,0,8.8-1.7,12.2-5,3.3-3.4,5-7.4,5-12.1s-1.7-8.8-5-12.1-7.4-5-12.2-5c-4.7,0-8.8,1.7-12.1,5s-5,7.4-5,12.1c0,4.7,1.7,8.8,5,12.1s7.4,5,12.1,5Z"/>
</svg>